<svg xmlns="http://www.w3.org/2000/svg" width="135" height="45" viewBox="0 0 135 45" fill="none">
<path d="M134.163 9.24402C134.618 9.67826 134.907 10.2567 134.981 10.8801C135.054 11.5035 134.908 12.133 134.566 12.6604C134.224 13.1878 133.708 13.5803 133.107 13.7706C132.506 13.9608 131.857 13.9368 131.272 13.7029C130.686 13.4689 130.201 13.0394 129.899 12.4883C129.598 11.9371 129.498 11.2986 129.618 10.6823C129.737 10.066 130.069 9.51047 130.556 9.11097C131.042 8.71148 131.653 8.49298 132.284 8.49298C132.632 8.48434 132.978 8.54648 133.301 8.67563C133.624 8.80477 133.917 8.99819 134.163 9.24402ZM133.838 12.71C134.202 12.3541 134.431 11.8835 134.485 11.3787C134.539 10.8738 134.416 10.3659 134.135 9.94155C133.855 9.51724 133.436 9.20285 132.949 9.052C132.461 8.90115 131.937 8.92319 131.464 9.1144C130.991 9.3056 130.6 9.6541 130.357 10.1004C130.113 10.5468 130.033 11.0632 130.13 11.5618C130.227 12.0603 130.494 12.51 130.887 12.8341C131.28 13.1581 131.774 13.3366 132.284 13.3389C132.572 13.3444 132.859 13.2915 133.126 13.1834C133.393 13.0753 133.636 12.9142 133.838 12.71ZM132.761 11.4334L133.568 12.3021H133.012L132.245 11.4729H131.782V12.3021H131.331V9.83515H132.442C132.701 9.82204 132.956 9.8989 133.164 10.0526C133.252 10.1221 133.323 10.2114 133.37 10.3132C133.417 10.415 133.439 10.5264 133.435 10.6383C133.444 10.8307 133.38 11.0194 133.255 11.1663C133.13 11.3131 132.953 11.407 132.761 11.4289V11.4334ZM132.443 11.074C132.581 11.0806 132.716 11.0386 132.826 10.9554C132.873 10.9197 132.91 10.8737 132.935 10.8212C132.96 10.7686 132.973 10.7109 132.972 10.6527C132.973 10.5953 132.961 10.5384 132.935 10.4869C132.91 10.4353 132.873 10.3905 132.826 10.3562C132.715 10.277 132.58 10.2374 132.443 10.2439H131.782V11.0731L132.443 11.074Z" fill="#022b50"/>
<path d="M19.7111 6.34706L0 0V7.66499C2.15376e-06 8.37235 0.225256 9.06151 0.643396 9.63354C1.06154 10.2056 1.65106 10.631 2.32734 10.8488L21.8976 17.1501V9.33415C21.8966 8.67031 21.6846 8.0238 21.2918 7.48722C20.8991 6.95064 20.3457 6.55152 19.7111 6.34706Z" fill="#FDD106"/>
<path d="M41.735 33.2455L21.8984 27.0332V34.8851C21.8984 35.537 22.1074 36.1719 22.4949 36.6975C22.8825 37.2231 23.4284 37.6119 24.0533 37.8075L43.8303 44.0009V36.0871C43.8304 35.4532 43.6273 34.8358 43.2504 34.3248C42.8735 33.8137 42.3427 33.4356 41.735 33.2455Z" fill="#FDD106"/>
<path d="M32.9192 22.613L8.03711 32.7648V24.8527C8.03705 24.2057 8.23042 23.5732 8.59261 23.0359C8.9548 22.4985 9.46944 22.0805 10.0711 21.835L35.7593 11.3555V18.4005C35.7594 19.3039 35.4893 20.1868 34.9836 20.937C34.4778 21.6872 33.7592 22.2706 32.9192 22.613Z" fill="#FDD106"/>
<path d="M53.145 30.8982L61.6193 19.5166V17.127H50.7292C50.1847 17.1277 49.6627 17.3432 49.2777 17.7264C48.8927 18.1095 48.6761 18.629 48.6754 19.1708V20.0467H57.054L48.2285 31.6888V33.8179H59.1935C59.8678 33.8172 60.5142 33.5504 60.991 33.0759C61.4677 32.6015 61.7359 31.9582 61.7366 31.2872V30.8982H53.145Z" fill="#022b50"/>
<path d="M78.3043 19.2217C79.9576 20.8898 80.8831 23.1395 80.8798 25.4824C80.8766 27.8254 79.945 30.0725 78.2871 31.7361C77.4455 32.5382 76.4532 33.1671 75.3669 33.5869C74.2807 34.0066 73.1219 34.209 71.9569 34.1824C69.5886 34.2384 67.2945 33.3589 65.5761 31.7361C64.749 30.9152 64.0928 29.9399 63.645 28.8662C63.1973 27.7925 62.9668 26.6414 62.9668 25.4789C62.9668 24.3164 63.1973 23.1653 63.645 22.0916C64.0928 21.0179 64.749 20.0427 65.5761 19.2217C67.2998 17.6097 69.5922 16.7382 71.9569 16.7961C73.1232 16.7654 74.2841 16.9638 75.3733 17.38C76.4624 17.7962 77.4584 18.4221 78.3043 19.2217ZM75.8298 29.5755C76.8892 28.4689 77.48 26.9992 77.48 25.4708C77.48 23.9425 76.8892 22.4727 75.8298 21.3661C74.7915 20.3464 73.3914 19.7747 71.9326 19.7747C70.4737 19.7747 69.0736 20.3464 68.0353 21.3661C66.9861 22.4778 66.402 23.9457 66.402 25.4708C66.402 26.996 66.9861 28.4638 68.0353 29.5755C69.0735 30.5954 70.4737 31.1673 71.9326 31.1673C73.3914 31.1673 74.7916 30.5954 75.8298 29.5755Z" fill="#022b50"/>
<path d="M82.9434 33.7774V9.98828H86.4452V31.518C86.4452 32.1174 86.2059 32.6924 85.7799 33.1162C85.354 33.5401 84.7763 33.7783 84.1739 33.7783L82.9434 33.7774Z" fill="#022b50"/>
<path d="M99.3193 33.7802H95.5818L88.4102 17.127H90.2888C90.8594 17.1265 91.4173 17.2941 91.8922 17.6088C92.3671 17.9234 92.7377 18.371 92.9574 18.895L97.4712 29.6252L101.985 18.895C102.205 18.371 102.575 17.9234 103.05 17.6088C103.525 17.2941 104.083 17.1265 104.654 17.127H106.532L99.3193 33.7802Z" fill="#022b50"/>
<path d="M111.808 10.6254C112.015 10.8252 112.179 11.0651 112.289 11.3303C112.399 11.5954 112.453 11.8802 112.448 12.167C112.458 12.453 112.408 12.7377 112.3 13.0032C112.193 13.2686 112.031 13.5089 111.825 13.7086C111.613 13.9105 111.362 14.0679 111.087 14.1715C110.812 14.275 110.519 14.3226 110.226 14.3114C109.628 14.3315 109.047 14.1147 108.61 13.7086C108.399 13.5115 108.234 13.2721 108.123 13.0063C108.013 12.7405 107.961 12.4544 107.97 12.167C107.965 11.8802 108.019 11.5954 108.129 11.3302C108.239 11.0651 108.403 10.8252 108.61 10.6254C108.821 10.4153 109.074 10.2505 109.352 10.1411C109.63 10.0318 109.927 9.98008 110.226 9.98934C110.519 9.98221 110.811 10.035 111.083 10.1444C111.355 10.2538 111.602 10.4175 111.808 10.6254ZM108.474 33.7784V17.1584H111.976V30.9836C111.976 31.3505 111.904 31.7139 111.763 32.0529C111.622 32.392 111.415 32.7 111.154 32.9595C110.893 33.219 110.584 33.4248 110.243 33.5651C109.902 33.7055 109.537 33.7777 109.169 33.7775L108.474 33.7784Z" fill="#022b50"/>
<path d="M127.861 32.9715C126.622 33.7608 125.19 34.2008 123.72 34.2445C122.897 34.3225 122.067 34.2163 121.291 33.9337C120.515 33.6511 119.812 33.1992 119.234 32.6112C118.656 32.0232 118.218 31.314 117.951 30.5355C117.685 29.757 117.596 28.929 117.693 28.1121V20.0375H113.889V17.1564H117.693V11.9961H121.195V17.1564H127.051L127.044 17.3064C127.01 18.042 126.693 18.7364 126.158 19.2451C125.623 19.7537 124.911 20.0376 124.171 20.0375H121.192V27.8803C121.133 28.7117 121.398 29.5338 121.932 30.1757C122.194 30.4423 122.509 30.6504 122.857 30.7863C123.206 30.9221 123.579 30.9826 123.953 30.9636C124.965 30.949 125.95 30.634 126.781 30.0589L127.861 32.9715Z" fill="#022b50"/>
</svg>